<svg xmlns="http://www.w3.org/2000/svg" viewBox="0 0 28 34" role="img">
  <path d="M22.6499 18.3624C22.6829 15.7989 24.0596 13.3732 26.2436 12.0305C24.8658 10.0628 22.5581 8.81518 20.1571 8.74006C17.5963 8.47126 15.1137 10.2724 13.8087 10.2724C12.4785 10.2724 10.4693 8.76674 8.30574 8.81126C5.48562 8.90237 2.85657 10.5057 1.48453 12.9713C-1.46482 18.0776 0.735132 25.5822 3.56036 29.7098C4.97388 31.7309 6.62589 33.9886 8.7875 33.9086C10.9028 33.8208 11.6928 32.5597 14.2461 32.5597C16.7757 32.5597 17.5169 33.9086 19.7224 33.8577C21.9921 33.8208 23.4222 31.8275 24.7861 29.7872C25.8018 28.3471 26.5833 26.7554 27.1017 25.0711C24.4343 23.943 22.653 21.2586 22.6499 18.3624Z" fill="currentColor"/>
  <path d="M18.4841 6.02556C19.7217 4.53989 20.3314 2.63032 20.1837 0.702362C18.293 0.900948 16.5465 1.8046 15.2922 3.23327C14.0656 4.62915 13.4274 6.50512 13.548 8.35939C15.4394 8.37886 17.2989 7.4997 18.4841 6.02556Z" fill="currentColor"/>
</svg>
